<?xml version="1.0" encoding="UTF-8"?>
<svg version="1.1" xmlns="http://www.w3.org/2000/svg" width="512" height="512">
<path d="M0 0 C2.21544163 1.69925142 4.39058995 3.44580607 6.56640625 5.1953125 C24.61485754 19.56624612 46.03194793 27.69261456 69.10546875 25.48046875 C78.52688036 24.25957481 87.68173203 22.08473715 96.88671875 19.7890625 C96.72816406 19.03753906 96.56960938 18.28601563 96.40625 17.51171875 C95.76100725 14.13025864 95.5743959 11.22461389 95.88671875 7.7890625 C98.81897324 3.9982453 101.42889407 3.08062744 106.05078125 2.15625 C107.85869141 1.78306641 107.85869141 1.78306641 109.703125 1.40234375 C110.95996094 1.15871094 112.21679688 0.91507813 113.51171875 0.6640625 C115.36216797 0.28701172 115.36216797 0.28701172 117.25 -0.09765625 C120.79282525 -0.81676318 124.33929896 -1.51491663 127.88671875 -2.2109375 C130.53560715 -2.74944184 133.18427212 -3.28894785 135.83227539 -3.83178711 C139.01021533 -4.41828036 141.67597053 -4.65162843 144.88671875 -4.2109375 C150.09928779 -0.211181 151.02355362 3.68100103 152.14746094 9.82226562 C152.32880585 10.72606964 152.51015076 11.62987366 152.69699097 12.56106567 C153.29415933 15.56086074 153.8637946 18.56520892 154.43359375 21.5703125 C154.85159003 23.69772277 155.27132217 25.82479264 155.69268799 27.95153809 C156.80435497 33.5863427 157.89298332 39.22536008 158.97668457 44.86560059 C160.04820939 50.42338007 161.13976938 55.9772074 162.23046875 61.53125 C163.52124665 68.10948852 164.80887043 74.68827489 166.08166504 81.27001953 C168.17915894 92.11061393 170.31187174 102.94184905 172.53320312 113.7578125 C172.95719498 115.83279169 173.38112602 117.90778331 173.80499268 119.98278809 C174.59560371 123.85101583 175.39842518 127.71643163 176.20819092 131.58068848 C176.56538113 133.3251784 176.92211679 135.06976147 177.27832031 136.81445312 C177.5247591 137.96327972 177.5247591 137.96327972 177.77617645 139.13531494 C180.55040229 152.91719429 180.55040229 152.91719429 177.44482422 158.27807617 C173.76624009 160.45089132 170.12846844 161.17856045 165.95703125 161.96484375 C165.08907928 162.13912399 164.22112732 162.31340424 163.32687378 162.4929657 C161.4942741 162.85728562 159.66015672 163.21404227 157.82470703 163.5637207 C155.02472201 164.09907628 152.23129381 164.66183365 149.4375 165.22851562 C147.65266709 165.57977198 145.86751962 165.92943449 144.08203125 166.27734375 C143.25059601 166.44494705 142.41916077 166.61255035 141.56253052 166.78523254 C136.50180161 167.73206837 131.76509299 168.58076961 127.1484375 165.70703125 C125.20667542 162.75531242 124.51339567 159.49449434 123.69921875 156.1015625 C123.52197266 155.39966797 123.34472656 154.69777344 123.16210938 153.97460938 C122.72762656 152.2484209 122.30591083 150.5190278 121.88671875 148.7890625 C118.1432165 152.3594834 114.42334595 155.95234366 110.72338867 159.56787109 C109.46170751 160.79435688 108.19381442 162.01448606 106.91967773 163.22802734 C105.08856812 164.97418489 103.28105574 166.74202626 101.4765625 168.515625 C100.90268295 169.05337555 100.32880341 169.5911261 99.73753357 170.14517212 C97.9309614 171.87233324 97.9309614 171.87233324 95.88671875 174.7890625 C95.882855 178.0016244 95.882855 178.0016244 96.88671875 180.7890625 C97.43683172 186.94609612 96.90696264 192.31187418 93.88671875 197.7890625 C91.44921875 200.6015625 91.44921875 200.6015625 88.88671875 202.7890625 C88.26796875 203.3459375 87.64921875 203.9028125 87.01171875 204.4765625 C81.98476726 207.5814443 76.68808892 208.21098033 70.88671875 207.7890625 C67.44921875 206.7890625 67.44921875 206.7890625 64.88671875 205.7890625 C65.12455078 206.60117187 65.12455078 206.60117187 65.3671875 207.4296875 C66.89932523 214.38766637 66.88027694 221.79784211 63.2265625 228.0390625 C59.99613848 232.25839183 55.85348784 235.82379415 50.88671875 237.7890625 C43.25206973 238.65755432 36.08008804 238.67546603 29.88671875 233.7890625 C26.07023333 230.25245268 22.44538229 226.58322583 18.88671875 222.7890625 C18.933125 223.55089844 18.97953125 224.31273437 19.02734375 225.09765625 C19.3054477 233.05341563 18.76265019 239.51819018 13.23828125 245.60546875 C8.19295036 250.17711137 3.56492855 252.08835966 -3.30078125 252.2890625 C-4.86892578 252.36640625 -4.86892578 252.36640625 -6.46875 252.4453125 C-16.96155486 250.55593285 -24.1380416 242.27709035 -31.23828125 234.9140625 C-32.20347154 233.92875056 -33.16961251 232.94436896 -34.13671875 231.9609375 C-36.47170859 229.57924786 -38.79676458 227.18870011 -41.11328125 224.7890625 C-41.09515381 225.4500293 -41.07702637 226.11099609 -41.05834961 226.79199219 C-40.93751973 234.34006216 -41.60341282 240.7635262 -46.76171875 246.6796875 C-51.86483842 251.27026676 -56.5126501 253.08127051 -63.42578125 253.1640625 C-64.49441406 253.19242187 -65.56304687 253.22078125 -66.6640625 253.25 C-76.040689 251.99695139 -81.6609526 245.79378183 -88.00170898 239.33886719 C-88.96590189 238.37190438 -89.93098977 237.40583327 -90.89689636 236.44058228 C-93.50039266 233.83397999 -96.09147653 231.21535121 -98.68055224 228.59443569 C-101.39516298 225.85097885 -104.1216188 223.11934659 -106.84693909 220.38653564 C-111.9992888 215.21663508 -117.14177578 210.03704553 -122.28038603 204.85349202 C-129.83839382 197.2301022 -137.40930645 189.61954418 -144.98253727 182.01128006 C-145.53719573 181.45405219 -146.09185419 180.89682432 -146.66332048 180.32271075 C-147.76862295 179.21231159 -148.87395774 178.1019446 -149.97932583 176.99161077 C-153.22222096 173.73342791 -156.46153815 170.47173909 -159.69785583 167.20702314 C-161.70356281 165.18436583 -163.71117493 163.16360689 -165.71917915 161.14323044 C-167.10069212 159.75181723 -168.4796356 158.35785432 -169.85852051 156.96383667 C-170.67292099 156.14503021 -171.48732147 155.32622375 -172.32640076 154.48260498 C-173.03777411 153.76511456 -173.74914747 153.04762413 -174.4820776 152.30839157 C-175.86371252 150.67546783 -175.86371252 150.67546783 -177.11328125 150.7890625 C-177.29503906 151.69269531 -177.47679687 152.59632813 -177.6640625 153.52734375 C-177.91542969 154.70683594 -178.16679687 155.88632812 -178.42578125 157.1015625 C-178.66941406 158.27332031 -178.91304687 159.44507813 -179.1640625 160.65234375 C-180.5119687 165.10653584 -180.5119687 165.10653584 -183.11328125 166.7890625 C-188.50742694 168.20575928 -192.96344472 167.35483552 -198.30859375 166.27734375 C-199.17845917 166.10784714 -200.04832458 165.93835052 -200.94454956 165.76371765 C-202.77610918 165.40326545 -204.60659828 165.03733543 -206.43603516 164.66625977 C-209.23259994 164.10270738 -212.03357765 163.56709125 -214.8359375 163.03320312 C-216.61882492 162.67876598 -218.40138967 162.32270106 -220.18359375 161.96484375 C-221.01907745 161.8073616 -221.85456116 161.64987946 -222.71536255 161.48762512 C-226.07118393 160.78699406 -228.7063592 160.02941758 -231.67138672 158.27807617 C-235.65241451 151.40598366 -232.50421724 141.35702215 -230.98950195 134.03491211 C-230.76344772 132.90318069 -230.53739349 131.77144928 -230.30448914 130.60542297 C-229.55845456 126.88218614 -228.79883536 123.1618617 -228.0390625 119.44140625 C-227.51210807 116.82532574 -226.98592109 114.20910235 -226.46073914 111.59266663 C-225.21714416 105.40570425 -223.96378642 99.22076283 -222.70680827 93.03650719 C-221.29624265 86.09434405 -219.89618314 79.15007716 -218.49722922 72.20556629 C-216.78167604 63.68988406 -215.06436676 55.17456226 -213.33894348 46.66087341 C-213.09680209 45.46479745 -212.8546607 44.26872149 -212.60518169 43.03640079 C-212.12998536 40.6956545 -211.65237779 38.35539622 -211.17218494 36.01566982 C-209.98993963 30.23514317 -208.86039934 24.45176718 -207.82040405 18.64382935 C-207.6090919 17.49764161 -207.39777975 16.35145388 -207.1800642 15.17053318 C-206.78324503 13.0080197 -206.40163887 10.84263616 -206.0382967 8.67424679 C-204.95028911 2.83299267 -204.03855791 -0.6708259 -199.11328125 -4.2109375 C-193.94810404 -4.83911409 -189.01374177 -3.80481355 -183.94921875 -2.78515625 C-183.19412018 -2.63689896 -182.43902161 -2.48864166 -181.66104126 -2.33589172 C-180.0754346 -2.0223315 -178.4905073 -1.7053179 -176.90625 -1.38500977 C-174.49049943 -0.89888387 -172.0717697 -0.4303355 -169.65234375 0.03710938 C-168.10525746 0.34529537 -166.55837473 0.65450542 -165.01171875 0.96484375 C-164.29390228 1.10247635 -163.57608582 1.24010895 -162.83651733 1.38191223 C-157.14986272 2.55589009 -153.38184917 3.88621062 -150.11328125 8.7890625 C-149.98828125 11.9765625 -149.98828125 11.9765625 -150.11328125 14.7890625 C-138.29102197 14.99808465 -126.469206 15.15775553 -114.64547157 15.25537205 C-109.15442009 15.30223686 -103.6646376 15.36574589 -98.17431641 15.46801758 C-92.87035125 15.56619355 -87.56760232 15.6197006 -82.26279831 15.64295769 C-80.24453977 15.65951922 -78.22634387 15.69186195 -76.20860672 15.74063301 C-63.13602522 16.37469024 -63.13602522 16.37469024 -52.00195312 10.40551758 C-50.67373588 8.89422758 -49.37250394 7.35830331 -48.11328125 5.7890625 C-33.94627017 -6.72517232 -16.67608479 -11.84274027 0 0 Z " fill="#FED5BC" transform="translate(283.11328125,250.2109375)"/>
<path d="M0 0 C1.31145996 -0.01260864 2.62291992 -0.02521729 3.97412109 -0.03820801 C5.40723202 -0.03104843 6.84033805 -0.0228445 8.2734375 -0.01367188 C9.74170183 -0.0163663 11.20996443 -0.0202483 12.67822266 -0.02526855 C15.75505567 -0.0311661 18.83142412 -0.02259312 21.90820312 -0.00390625 C25.85300675 0.01888432 29.79672192 0.00576249 33.7414856 -0.01819611 C36.77327685 -0.03264768 39.80480987 -0.02805124 42.83660889 -0.01768494 C44.29107797 -0.01501583 45.74557047 -0.01829392 47.20001221 -0.02760315 C49.23229527 -0.03775609 51.26466049 -0.01953812 53.296875 0 C54.45364746 0.00318237 55.61041992 0.00636475 56.80224609 0.00964355 C59.6484375 0.51757812 59.6484375 0.51757812 61.51838684 2.34368896 C63.15049088 5.48338297 63.08794275 8.16543444 63.16015625 11.68945312 C63.17810745 12.37187073 63.19605865 13.05428833 63.21455383 13.75738525 C63.26854133 15.92738753 63.30251333 18.09717138 63.3359375 20.26757812 C63.36912102 21.74286886 63.40361165 23.21813082 63.43945312 24.69335938 C63.52425908 28.3012224 63.59112587 31.90916175 63.6484375 35.51757812 C65.42734375 35.95457031 65.42734375 35.95457031 67.2421875 36.40039062 C86.95186248 41.34471391 105.66880147 48.16590003 122.6328125 59.58398438 C124.56586134 60.69048079 124.56586134 60.69048079 126.52416992 60.31005859 C129.25121744 59.2927047 130.63043271 57.85979882 132.65234375 55.77148438 C133.39291016 55.01673828 134.13347656 54.26199219 134.89648438 53.484375 C135.66025391 52.69095703 136.42402344 51.89753906 137.2109375 51.08007812 C138.73088 49.51674516 140.25292778 47.95545555 141.77734375 46.39648438 C142.44838135 45.70111572 143.11941895 45.00574707 143.81079102 44.28930664 C146.42648956 41.76743547 148.23059275 40.59131543 151.8359375 39.95507812 C155.84232455 40.54618441 156.52964797 40.95155665 159.36376953 43.54467773 C160.06302551 44.18194794 160.76228149 44.81921814 161.48272705 45.47579956 C165.0354089 48.82518066 168.54526547 52.21182773 172.015625 55.64648438 C173.15682297 56.77557472 173.15682297 56.77557472 174.32107544 57.92747498 C175.91407271 59.50674322 177.50559814 61.08749739 179.09570312 62.66967773 C180.72050359 64.28287715 182.34978187 65.89157848 183.98339844 67.49584961 C186.35813672 69.828029 188.71944632 72.17307723 191.078125 74.52148438 C192.1733699 75.59046715 192.1733699 75.59046715 193.29074097 76.68104553 C199.90667056 83.32566018 199.90667056 83.32566018 200.6484375 88.51757812 C199.65946987 92.78649446 197.4027083 95.06903728 194.26171875 98.02148438 C193.40642578 98.84455078 192.55113281 99.66761719 191.66992188 100.515625 C189.85579782 102.23296089 188.03804965 103.94647605 186.21679688 105.65625 C185.36537109 106.47802734 184.51394531 107.29980469 183.63671875 108.14648438 C182.84821533 108.88970947 182.05971191 109.63293457 181.24731445 110.39868164 C179.41570722 112.34850398 179.41570722 112.34850398 179.77392578 114.56201172 C180.64578523 116.51164718 181.56335645 118.34002296 182.65234375 120.17773438 C183.05936523 120.87866211 183.46638672 121.57958984 183.88574219 122.30175781 C184.54171387 123.42952637 184.54171387 123.42952637 185.2109375 124.58007812 C193.67457699 139.55701376 204.6484375 159.90172791 204.6484375 177.51757812 C206.02563965 177.49401245 206.02563965 177.49401245 207.43066406 177.4699707 C210.84494699 177.41876942 214.25882054 177.38119334 217.67333984 177.3527832 C219.14964241 177.33771889 220.62590038 177.3172633 222.10205078 177.29125977 C224.22700008 177.25477074 226.35135651 177.23782879 228.4765625 177.22460938 C230.3932373 177.2010437 230.3932373 177.2010437 232.34863281 177.17700195 C235.85526734 177.53892524 237.22336798 178.00998582 239.6484375 180.51757812 C243.23390198 191.27397157 240.6484375 203.17934389 240.6484375 214.51757812 C214.9084375 214.51757812 189.1684375 214.51757812 162.6484375 214.51757812 C161.6584375 206.26757812 160.6684375 198.01757812 159.6484375 189.51757812 C154.34484953 166.29646322 145.8165192 144.39959075 129.6484375 126.51757812 C128.55402344 125.24527344 128.55402344 125.24527344 127.4375 123.94726562 C103.58717759 96.58215886 69.77918388 81.40410488 33.84375 78.77148438 C-2.29925185 76.6952979 -37.51193382 90.08329827 -64.4609375 113.91210938 C-65.89179688 115.20181641 -65.89179688 115.20181641 -67.3515625 116.51757812 C-68.07859375 117.16082031 -68.805625 117.8040625 -69.5546875 118.46679688 C-96.57035895 143.78026138 -105.11231884 179.19054767 -109.3515625 214.51757812 C-135.0915625 214.51757812 -160.8315625 214.51757812 -187.3515625 214.51757812 C-187.3515625 183.51757812 -187.3515625 183.51757812 -184.3515625 178.51757812 C-181.37796801 177.03078088 -178.68857071 177.40645208 -175.375 177.41992188 C-174.34712875 177.4220443 -174.34712875 177.4220443 -173.29849243 177.42420959 C-171.10780489 177.42981138 -168.9172192 177.44236406 -166.7265625 177.45507812 C-165.24218898 177.4600929 -163.75781385 177.46465585 -162.2734375 177.46875 C-158.63277935 177.47978135 -154.99218086 177.49704713 -151.3515625 177.51757812 C-151.155625 176.46183594 -150.9596875 175.40609375 -150.7578125 174.31835938 C-146.96718337 155.09005194 -140.07417096 132.67816914 -127.49609375 117.24023438 C-126.15084294 115.60521019 -126.15084294 115.60521019 -126.51635742 113.68310547 C-127.63796522 110.77499055 -129.31121557 109.2870112 -131.5703125 107.14648438 C-132.41980469 106.32470703 -133.26929688 105.50292969 -134.14453125 104.65625 C-135.94726919 102.9406574 -137.75195481 101.22710908 -139.55859375 99.515625 C-140.40808594 98.69255859 -141.25757813 97.86949219 -142.1328125 97.02148438 C-142.91720703 96.27713135 -143.70160156 95.53277832 -144.50976562 94.76586914 C-146.63537362 92.17112841 -147.28847694 90.86836762 -147.3515625 87.51757812 C-145.29844632 81.12152948 -140.04208855 76.81249694 -135.37890625 72.21679688 C-134.50005264 71.33981644 -133.62119904 70.462836 -132.7157135 69.5592804 C-130.3891153 67.2411025 -128.05591471 64.92984157 -125.71966553 62.62139893 C-123.33942188 60.26491811 -120.97045584 57.89718406 -118.59960938 55.53125 C-116.79749847 53.73830541 -114.99478486 51.94596637 -113.19140625 50.15429688 C-112.33618881 49.30332932 -111.48097137 48.45236176 -110.59983826 47.5756073 C-109.80884232 46.7942189 -109.01784637 46.01283051 -108.20288086 45.20776367 C-107.50577499 44.51748581 -106.80866913 43.82720795 -106.09043884 43.11601257 C-103.45994769 40.69797538 -101.07620096 39.8605084 -97.4609375 39.92773438 C-91.32958091 41.64224335 -86.67589207 48.12111088 -82.40625 52.59960938 C-81.91737305 53.10580811 -81.42849609 53.61200684 -80.92480469 54.13354492 C-79.53365826 55.58308572 -78.16472954 57.05385032 -76.796875 58.52539062 C-75.98992187 59.1828125 -75.18296875 59.84023437 -74.3515625 60.51757812 C-71.43254946 60.1383654 -69.22892928 59.01209709 -66.7265625 57.51367188 C-66.03038818 57.10656982 -65.33421387 56.69946777 -64.61694336 56.2800293 C-63.86936768 55.84279541 -63.12179199 55.40556152 -62.3515625 54.95507812 C-46.27337169 45.81238412 -28.53848953 39.05062667 -10.3515625 35.51757812 C-10.33697998 34.59944336 -10.32239746 33.68130859 -10.30737305 32.73535156 C-10.24622735 29.32069903 -10.17206033 25.90684141 -10.08911133 22.49267578 C-10.05590895 21.01654675 -10.02786233 19.54029219 -10.00512695 18.06396484 C-9.97149299 15.93858481 -9.91917731 13.81435008 -9.86328125 11.68945312 C-9.83709717 10.41166992 -9.81091309 9.13388672 -9.78393555 7.81738281 C-8.9235048 1.25070747 -6.37217701 0.01753037 0 0 Z " fill="#FFDA2C" transform="translate(229.3515625,8.482421875)"/>
<path d="M0 0 C2.21544163 1.69925142 4.39058995 3.44580607 6.56640625 5.1953125 C24.61485754 19.56624612 46.03194793 27.69261456 69.10546875 25.48046875 C78.52688036 24.25957481 87.68173203 22.08473715 96.88671875 19.7890625 C96.72816406 19.03753906 96.56960938 18.28601563 96.40625 17.51171875 C95.76100725 14.13025864 95.5743959 11.22461389 95.88671875 7.7890625 C98.81897324 3.9982453 101.42889407 3.08062744 106.05078125 2.15625 C107.25605469 1.90746094 108.46132813 1.65867188 109.703125 1.40234375 C110.95996094 1.15871094 112.21679688 0.91507813 113.51171875 0.6640625 C114.74535156 0.41269531 115.97898437 0.16132813 117.25 -0.09765625 C120.79282525 -0.81676318 124.33929896 -1.51491663 127.88671875 -2.2109375 C130.53560715 -2.74944184 133.18427212 -3.28894785 135.83227539 -3.83178711 C139.01021533 -4.41828036 141.67597053 -4.65162843 144.88671875 -4.2109375 C150.09928779 -0.211181 151.02355362 3.68100103 152.14746094 9.82226562 C152.32880585 10.72606964 152.51015076 11.62987366 152.69699097 12.56106567 C153.29415933 15.56086074 153.8637946 18.56520892 154.43359375 21.5703125 C154.85159003 23.69772277 155.27132217 25.82479264 155.69268799 27.95153809 C156.80435497 33.5863427 157.89298332 39.22536008 158.97668457 44.86560059 C160.04820939 50.42338007 161.13976938 55.9772074 162.23046875 61.53125 C163.52124665 68.10948852 164.80887043 74.68827489 166.08166504 81.27001953 C168.17915894 92.11061393 170.31187174 102.94184905 172.53320312 113.7578125 C172.95719498 115.83279169 173.38112602 117.90778331 173.80499268 119.98278809 C174.59560371 123.85101583 175.39842518 127.71643163 176.20819092 131.58068848 C176.56538113 133.3251784 176.92211679 135.06976147 177.27832031 136.81445312 C177.5247591 137.96327972 177.5247591 137.96327972 177.77617645 139.13531494 C180.55040229 152.91719429 180.55040229 152.91719429 177.44482422 158.27807617 C173.76624009 160.45089132 170.12846844 161.17856045 165.95703125 161.96484375 C165.08907928 162.13912399 164.22112732 162.31340424 163.32687378 162.4929657 C161.4942741 162.85728562 159.66015672 163.21404227 157.82470703 163.5637207 C155.02472201 164.09907628 152.23129381 164.66183365 149.4375 165.22851562 C147.65266709 165.57977198 145.86751962 165.92943449 144.08203125 166.27734375 C143.25059601 166.44494705 142.41916077 166.61255035 141.56253052 166.78523254 C137.08583917 167.622798 133.3489252 168.12455561 128.88671875 166.7890625 C125.88671875 163.7890625 125.88671875 163.7890625 121.88671875 148.7890625 C112.97671875 157.6990625 104.06671875 166.6090625 94.88671875 175.7890625 C90.33343151 171.88624487 85.96317738 168.02427553 81.734375 163.8046875 C81.18937851 163.26301941 80.64438202 162.72135132 80.08287048 162.16326904 C78.94644689 161.03185937 77.81132857 159.89913719 76.67749023 158.76513672 C74.93425715 157.02411992 73.18313655 155.29129313 71.43164062 153.55859375 C70.3237313 152.45361353 69.21629177 151.34816202 68.109375 150.2421875 C67.5844899 149.72448792 67.0596048 149.20678833 66.51881409 148.67340088 C62.88671875 145.01792402 62.88671875 145.01792402 62.88671875 142.7890625 C62.22671875 142.7890625 61.56671875 142.7890625 60.88671875 142.7890625 C59.62062073 141.50914001 59.62062073 141.50914001 58.08032227 139.62475586 C52.64506423 133.24054971 46.69072662 127.36687772 40.7890625 121.41796875 C39.84852115 120.46944188 39.84852115 120.46944188 38.88897896 119.50175285 C35.56924654 116.15544028 32.24594426 112.81271532 28.92016602 109.47241211 C26.19496877 106.73389666 23.47721886 103.98830914 20.76586914 101.23608398 C17.46229245 97.88274162 14.14619038 94.54226347 10.8211689 91.21018791 C9.5696109 89.95199331 8.32224631 88.68961057 7.07954216 87.42267036 C-3.74732032 76.39679057 -17.74939662 62.81526238 -34.05078125 62.4140625 C-38.07367713 62.35924338 -38.07367713 62.35924338 -41.11328125 64.7890625 C-41.51366249 67.03259712 -41.80498552 69.29597917 -42.04296875 71.5625 C-42.20031769 72.95965831 -42.35787705 74.35679293 -42.515625 75.75390625 C-42.75234971 77.94275914 -42.9849449 80.13194192 -43.21240234 82.32177734 C-44.84554303 97.81358698 -48.03975167 112.45181304 -59.80078125 123.6015625 C-66.89676408 129.31968458 -74.94100622 133.43628269 -84.11328125 133.7890625 C-85.52742631 128.97250693 -86.76538801 124.15419138 -87.8828125 119.2578125 C-88.12488937 118.19960045 -88.12488937 118.19960045 -88.37185669 117.12001038 C-88.89188421 114.84349018 -89.40896245 112.56631309 -89.92578125 110.2890625 C-90.28390057 108.71735857 -90.64205509 107.14566265 -91.00024414 105.57397461 C-93.63329235 93.99899704 -96.19492086 82.40942515 -98.66772461 70.79907227 C-98.97390793 69.41780801 -99.30373343 68.04163892 -99.65307617 66.6706543 C-100.95404923 61.35150343 -101.0702775 55.71412985 -98.36328125 50.8515625 C-92.27546082 42.32173501 -83.04167333 35.62037971 -74.9609375 29.09765625 C-71.81648315 26.5484484 -68.70715575 23.96176341 -65.61328125 21.3515625 C-65.06494629 20.8889502 -64.51661133 20.42633789 -63.95166016 19.94970703 C-60.40442089 16.93670955 -56.96279603 13.83060859 -53.55078125 10.6640625 C-37.84406558 -3.69178404 -20.02052117 -14.21783561 0 0 Z " fill="#F8C5A9" transform="translate(283.11328125,250.2109375)"/>
<path d="M0 0 C5.21256904 3.9997565 6.13683487 7.89193853 7.26074219 14.03320312 C7.4420871 14.93700714 7.62343201 15.84081116 7.81027222 16.77200317 C8.40744058 19.77179824 8.97707585 22.77614642 9.546875 25.78125 C9.96487128 27.90866027 10.38460342 30.03573014 10.80596924 32.16247559 C11.91763622 37.7972802 13.00626457 43.43629758 14.08996582 49.07653809 C15.16149064 54.63431757 16.25305063 60.1881449 17.34375 65.7421875 C18.6345279 72.32042602 19.92215168 78.89921239 21.19494629 85.48095703 C23.29244019 96.32155143 25.42515299 107.15278655 27.64648438 117.96875 C28.07047623 120.04372919 28.49440727 122.11872081 28.91827393 124.19372559 C29.70888496 128.06195333 30.51170643 131.92736913 31.32147217 135.79162598 C31.67866238 137.5361159 32.03539804 139.28069897 32.39160156 141.02539062 C32.55589409 141.79127502 32.72018661 142.55715942 32.8894577 143.34625244 C35.66368354 157.12813179 35.66368354 157.12813179 32.55810547 162.48901367 C28.87952134 164.66182882 25.24174969 165.38949795 21.0703125 166.17578125 C20.20236053 166.35006149 19.33440857 166.52434174 18.44015503 166.7039032 C16.60755535 167.06822312 14.77343797 167.42497977 12.93798828 167.7746582 C10.13800326 168.31001378 7.34457506 168.87277115 4.55078125 169.43945312 C2.76594834 169.79070948 0.98080087 170.14037199 -0.8046875 170.48828125 C-1.63612274 170.65588455 -2.46755798 170.82348785 -3.32418823 170.99617004 C-8.33897056 171.9344095 -13.30277656 172.83955371 -17.78125 169.78515625 C-21.53253709 164.29048253 -21.9042188 155.7688679 -22.92884254 149.28663921 C-24.98164002 136.34581525 -27.65777995 123.53216429 -30.2890625 110.69921875 C-30.79832826 108.20349308 -31.3073054 105.7077085 -31.81600952 103.21186829 C-33.00941556 97.36013877 -34.20563938 91.50899006 -35.40331495 85.65813333 C-36.76509286 79.00482907 -38.12329352 72.35079616 -39.48116994 65.69669473 C-41.80109275 54.32831884 -44.12318806 42.96038925 -46.44929504 31.59327698 C-46.63985977 30.66161713 -46.8304245 29.72995728 -47.02676392 28.77006531 C-47.19155558 27.96475215 -47.35634724 27.15943899 -47.52613258 26.3297224 C-47.76069695 25.17650981 -47.76069695 25.17650981 -48 24 C-48.17862768 23.15009397 -48.35725536 22.30018793 -48.54129601 21.42452717 C-49.15960244 18.1564049 -49.30166431 15.31830738 -49 12 C-46.06774551 8.2091828 -43.45782468 7.29156494 -38.8359375 6.3671875 C-37.63066406 6.11839844 -36.42539062 5.86960938 -35.18359375 5.61328125 C-33.92675781 5.36964844 -32.66992188 5.12601563 -31.375 4.875 C-30.14136719 4.62363281 -28.90773438 4.37226563 -27.63671875 4.11328125 C-24.0938935 3.39417432 -20.54741979 2.69602087 -17 2 C-14.3511116 1.46149566 -11.70244663 0.92198965 -9.05444336 0.37915039 C-5.87650342 -0.20734286 -3.21074822 -0.44069093 0 0 Z " fill="#FFD92C" transform="translate(428,246)"/>
<path d="M0 0 C1.41337436 0.26955551 2.82529488 0.54682083 4.23583984 0.83081055 C4.99093842 0.97906784 5.74603699 1.12732513 6.52401733 1.28007507 C8.10962399 1.59363529 9.6945513 1.91064889 11.27880859 2.23095703 C13.69455917 2.71708293 16.11328889 3.1856313 18.53271484 3.65307617 C20.07980114 3.96126217 21.62668386 4.27047222 23.17333984 4.58081055 C23.89115631 4.71844315 24.60897278 4.85607574 25.34854126 4.99787903 C31.03519588 6.17185689 34.80320943 7.50217742 38.07177734 12.4050293 C38.23844106 19.39973052 36.37380075 26.59371258 34.98632812 33.41577148 C34.77642242 34.46763641 34.56651672 35.51950134 34.35025024 36.60324097 C33.66047194 40.05373704 32.96386778 43.5028155 32.26708984 46.9519043 C31.78206656 49.37022131 31.29744385 51.7886187 30.8132019 54.20709229 C29.5396604 60.56142083 28.26019063 66.91454207 26.97961426 73.26745605 C25.94072142 78.42660467 24.90609086 83.58660353 23.87169075 88.74665451 C22.62997297 94.94036894 21.38628277 101.13368666 20.14208984 107.3269043 C19.90799534 108.49246605 19.67390083 109.6580278 19.43271255 110.85890961 C14.90075356 133.40737857 14.90075356 133.40737857 12.63217163 143.72331238 C11.62740793 148.53151955 10.92943087 153.38668379 10.25537109 158.25073242 C9.59566168 162.56159223 8.84569848 165.89183201 6.07177734 169.4050293 C2.61671579 171.73406126 0.31457591 171.43071886 -3.70556641 170.7097168 C-5.43395752 170.40759277 -5.43395752 170.40759277 -7.19726562 170.09936523 C-9.04408936 169.75566895 -9.04408936 169.75566895 -10.92822266 169.4050293 C-12.18393066 169.18363281 -13.43963867 168.96223633 -14.73339844 168.73413086 C-17.99607899 168.14956214 -21.25257439 167.54125247 -24.5065918 166.91040039 C-25.84424114 166.65396411 -27.18316513 166.40410042 -28.52319336 166.16040039 C-30.49562133 165.80117156 -32.46397538 165.41979618 -34.43212891 165.0378418 C-35.58527588 164.82015137 -36.73842285 164.60246094 -37.92651367 164.37817383 C-41.50156447 163.2191537 -42.90841275 162.60195311 -44.92822266 159.4050293 C-45.76894666 152.02940934 -44.29225227 144.84292393 -42.80444336 137.65087891 C-42.57838913 136.51914749 -42.3523349 135.38741608 -42.11943054 134.22138977 C-41.37339597 130.49815294 -40.61377676 126.7778285 -39.85400391 123.05737305 C-39.32704947 120.44129254 -38.8008625 117.82506914 -38.27568054 115.20863342 C-37.03208556 109.02167105 -35.77872783 102.83672962 -34.52174968 96.65247399 C-33.11118406 89.71031084 -31.71112454 82.76604396 -30.31217062 75.82153308 C-28.59661744 67.30585086 -26.87930816 58.79052906 -25.15388489 50.27684021 C-24.9117435 49.08076425 -24.66960211 47.88468828 -24.4201231 46.65236759 C-23.94492676 44.31162129 -23.46731919 41.97136302 -22.98712635 39.63163662 C-21.80488104 33.85110997 -20.67534075 28.06773398 -19.63534546 22.25979614 C-19.42403331 21.11360841 -19.21272116 19.96742067 -18.99500561 18.78649998 C-18.59818644 16.6239865 -18.21658028 14.45860295 -17.85323811 12.29021358 C-15.74255654 0.95846606 -11.59629948 -1.75638172 0 0 Z " fill="#63B4F6" transform="translate(94.92822265625,246.594970703125)"/>
<path d="M0 0 C0 0.66 0 1.32 0 2 C-0.89460938 2.08636719 -1.78921875 2.17273438 -2.7109375 2.26171875 C-15.06324705 3.69711506 -22.44469138 7.1212741 -31.4453125 15.6171875 C-33.98789947 17.98871357 -36.60944137 20.18904824 -39.3125 22.375 C-43.41972895 25.70017548 -47.47500227 29.07643872 -51.5 32.5 C-55.52499773 35.92356128 -59.58027105 39.29982452 -63.6875 42.625 C-67.3423882 45.61098479 -70.9515152 48.63801478 -74.5 51.75 C-75.2940625 52.44609375 -76.088125 53.1421875 -76.90625 53.859375 C-80.96517432 58.00917076 -82.42881338 61.32340109 -82.4296875 67.13671875 C-82.22708726 76.27398938 -80.18369523 84.94202379 -78.125 93.8125 C-77.75514401 95.45477099 -77.38664742 97.09734875 -77.01953125 98.74023438 C-76.3418088 101.76344454 -75.65666466 104.78472633 -74.96142578 107.80395508 C-73.95034589 112.19734885 -72.97260452 116.5979493 -72 121 C-67.71376382 121 -66.138053 118.99357871 -63.05859375 116.1796875 C-52.85914793 105.38027427 -50.42151108 91.34607569 -48.9375 77.125 C-48.71773786 75.0381058 -48.493709 72.95219259 -48.254776 70.86740112 C-48.03990912 68.99245874 -47.84158133 67.11564238 -47.64428711 65.23876953 C-46.97315047 61.86502998 -46.02223814 59.76274486 -44 57 C-39.89762904 54.94881452 -35.3227326 56.0086399 -31 57 C-28.2791799 58.08093109 -25.70609598 59.37136271 -23.125 60.75 C-22.49505127 61.08507568 -21.86510254 61.42015137 -21.21606445 61.76538086 C-17.16728805 64.04345788 -14.14379185 66.58127578 -11 70 C-14.22107038 68.978685 -17.17022662 67.9132178 -20.1875 66.375 C-24.85117639 64.31503532 -30.00110204 64.36166643 -35 65 C-37.78311221 67.78311221 -37.5209924 69.88107942 -37.9296875 73.7734375 C-38.08703644 75.17059581 -38.2445958 76.56773043 -38.40234375 77.96484375 C-38.63906846 80.15369664 -38.87166365 82.34287942 -39.09912109 84.53271484 C-40.73226178 100.02452448 -43.92647042 114.66275054 -55.6875 125.8125 C-62.78348283 131.53062208 -70.82772497 135.64722019 -80 136 C-81.41414506 131.18344443 -82.65210676 126.36512888 -83.76953125 121.46875 C-84.01160812 120.41053795 -84.01160812 120.41053795 -84.25857544 119.33094788 C-84.77860296 117.05442768 -85.2956812 114.77725059 -85.8125 112.5 C-86.17061932 110.92829607 -86.52877384 109.35660015 -86.88696289 107.78491211 C-89.5200111 96.20993454 -92.08163961 84.62036265 -94.55444336 73.01000977 C-94.86062668 71.62874551 -95.19045218 70.25257642 -95.53979492 68.8815918 C-96.84076798 63.56244093 -96.95699625 57.92506735 -94.25 53.0625 C-88.16217957 44.53267251 -78.92839208 37.83131721 -70.84765625 31.30859375 C-67.7032019 28.7593859 -64.5938745 26.17270091 -61.5 23.5625 C-60.95166504 23.0998877 -60.40333008 22.63727539 -59.83837891 22.16064453 C-56.29113964 19.14764705 -52.84951478 16.04154609 -49.4375 12.875 C-34.51076951 -0.76794463 -20.04916059 -10.34795385 0 0 Z " fill="#EAAC92" transform="translate(279,248)"/>
<path d="M0 0 C4.0574932 2.8063604 6.29134279 5.97797212 8.19921875 10.57421875 C9.20782645 16.52500417 8.91437977 21.19819968 6.07421875 26.57421875 C2.43972915 30.91541467 -0.92515066 33.26314817 -6.17578125 35.26171875 C-5.35335937 35.44605469 -4.5309375 35.63039062 -3.68359375 35.8203125 C6.75182222 38.53159263 13.79695787 43.38086964 19.82421875 52.38671875 C22.85255366 57.7799371 24.26743962 63.05662655 23.82421875 69.26171875 C21.99865758 71.08727992 19.11883272 70.38944278 16.66796875 70.39111328 C15.34990234 70.39426544 14.03183594 70.3974176 12.67382812 70.40066528 C11.223958 70.3988755 9.77408817 70.39682455 8.32421875 70.39453125 C6.84830713 70.39520432 5.37239562 70.39617438 3.89648438 70.39743042 C0.79946846 70.39890723 -2.29751867 70.39675339 -5.39453125 70.39208984 C-9.37286674 70.38639255 -13.35113477 70.38967165 -17.32946777 70.39566231 C-20.37826042 70.39926838 -23.42703696 70.39812912 -26.47583008 70.39553452 C-27.94311531 70.39486537 -29.41040199 70.39569322 -30.87768555 70.39801407 C-32.92496718 70.40054132 -34.97225391 70.39600935 -37.01953125 70.39111328 C-38.77040039 70.38991989 -38.77040039 70.38991989 -40.55664062 70.38870239 C-43.17578125 70.26171875 -43.17578125 70.26171875 -44.17578125 69.26171875 C-44.44775655 59.64544912 -40.88374139 51.81791654 -34.36328125 44.88671875 C-28.35429428 39.29486596 -22.09907357 36.9595671 -14.17578125 35.26171875 C-15.37203125 34.76671875 -16.56828125 34.27171875 -17.80078125 33.76171875 C-22.68402592 31.28106515 -25.72944624 28.17126005 -28.17578125 23.26171875 C-29.75479817 17.67306337 -29.68056783 12.42164797 -27.32421875 7.08203125 C-21.14383019 -2.71409483 -10.01186105 -5.6058554 0 0 Z " fill="#63B4F5" transform="translate(266.17578125,154.73828125)"/>
<path d="M0 0 C5.38603181 4.4067533 7.67120938 9.04088439 8.4375 15.9375 C8.20237942 21.21237906 6.14857528 25.67482949 2.57421875 29.54296875 C-0.38897097 32.1539447 -3.34455813 33.62688986 -7 35 C-6.16597656 35.20753906 -5.33195312 35.41507813 -4.47265625 35.62890625 C5.41169648 38.3349318 13.30354182 42.3200853 19.00390625 51.1171875 C22.07145869 56.91546309 23.54524402 62.45707174 23 69 C21.1879616 70.8120384 18.39017401 70.13715522 15.95141602 70.14526367 C14.65659805 70.15164352 13.36178009 70.15802338 12.02772522 70.16459656 C10.60311927 70.16612511 9.17851283 70.16723914 7.75390625 70.16796875 C6.30281033 70.17117962 4.85171473 70.17454356 3.40061951 70.17805481 C0.35488128 70.18405246 -2.69082855 70.18589407 -5.73657227 70.18530273 C-9.64535857 70.18520109 -13.55396332 70.19885309 -17.46270657 70.21607494 C-20.4609308 70.22717671 -23.4591109 70.22922251 -26.45735359 70.22869301 C-27.89869881 70.22987589 -29.34004508 70.23431486 -30.78137016 70.24202538 C-32.79489696 70.25178786 -34.80847668 70.24769271 -36.82202148 70.24291992 C-37.96928207 70.24434494 -39.11654266 70.24576996 -40.29856873 70.24723816 C-43 70 -43 70 -45 68 C-44.71584727 58.22180321 -40.75489634 50.31342289 -33.75 43.6875 C-27.86014395 38.76785319 -21.68776225 35.78848844 -14 35 C-14.66386719 34.731875 -15.32773437 34.46375 -16.01171875 34.1875 C-21.3766483 31.80656776 -25.40845788 29.66288876 -28.22265625 24.375 C-29.98295185 18.99681043 -30.07485479 13.19597782 -28.265625 7.81640625 C-25.67917086 2.88730308 -22.154233 -0.06337696 -17.125 -2.25 C-10.58819881 -3.81883229 -5.93034498 -3.1848149 0 0 Z " fill="#FC675A" transform="translate(347,155)"/>
<path d="M0 0 C4.22227327 2.96258954 7.1874046 5.75114286 8.68359375 10.80078125 C9.54676483 17.02095222 9.51728555 22.3033617 6.24609375 27.80078125 C2.89082277 32.23424482 -1.10087149 34.14340021 -6.31640625 35.80078125 C-5.03765625 36.00703125 -3.75890625 36.21328125 -2.44140625 36.42578125 C6.87627564 38.53544507 14.30255986 43.97252184 19.68359375 51.80078125 C22.83064341 57.27933416 24.46194064 62.48366753 24.68359375 68.80078125 C22.68359375 70.80078125 22.68359375 70.80078125 19.98216248 71.04801941 C18.83490189 71.04659439 17.6876413 71.04516937 16.50561523 71.04370117 C15.20764511 71.0467778 13.90967499 71.04985443 12.57237244 71.05302429 C11.149809 71.04612706 9.72724731 71.03886013 8.3046875 71.03125 C6.85262594 71.03005832 5.40056361 71.02960501 3.94850159 71.02986145 C0.90450215 71.02829629 -2.13937974 71.02000347 -5.18334961 71.0065918 C-9.09328401 70.98958677 -13.00308932 70.98577786 -16.91305637 70.98653698 C-19.91124208 70.98626563 -22.90939934 70.98079029 -25.90757561 70.97353554 C-27.34973879 70.97034443 -28.79190521 70.96838044 -30.23407173 70.96764183 C-32.24533364 70.96548381 -34.25658362 70.95595474 -36.26782227 70.94604492 C-37.41428726 70.94223312 -38.56075226 70.93842133 -39.74195862 70.93449402 C-42.31640625 70.80078125 -42.31640625 70.80078125 -43.31640625 69.80078125 C-44.15952852 61.87543194 -41.06858974 55.01862099 -36.62890625 48.55078125 C-30.42902691 40.87843056 -22.76440848 37.81400042 -13.31640625 35.80078125 C-14.09564453 35.47207031 -14.09564453 35.47207031 -14.890625 35.13671875 C-21.0198801 32.34966375 -24.32742262 29.39989449 -27.62890625 23.42578125 C-29.34457155 16.87505918 -28.68026048 11.66039829 -25.31640625 5.80078125 C-18.54924351 -1.63284448 -9.40131808 -4.8671242 0 0 Z " fill="#71D560" transform="translate(185.31640625,154.19921875)"/>
<path d="M0 0 C7.6796875 0.7578125 7.6796875 0.7578125 10.5625 2.9375 C13.85841826 9.9592389 10.40807252 19.66725077 8.91455078 27.01074219 C8.70464508 28.06260712 8.49473938 29.11447205 8.2784729 30.19821167 C7.5886946 33.64870775 6.89209043 37.0977862 6.1953125 40.546875 C5.71028922 42.96519201 5.22566651 45.3835894 4.74142456 47.80206299 C3.46788306 54.15639153 2.18841328 60.50951278 0.90783691 66.86242676 C-0.13105592 72.02157537 -1.16568649 77.18157423 -2.20008659 82.34162521 C-3.44180438 88.53533964 -4.68549457 94.72865736 -5.9296875 100.921875 C-6.16378201 102.08743675 -6.39787651 103.2529985 -6.63906479 104.45388031 C-11.17102378 127.00234927 -11.17102378 127.00234927 -13.43960571 137.31828308 C-14.44436942 142.12649025 -15.14234647 146.98165449 -15.81640625 151.84570312 C-16.47611567 156.15656293 -17.22607887 159.48680272 -20 163 C-23.45506155 165.32903196 -25.75720143 165.02568956 -29.77734375 164.3046875 C-31.50573486 164.00256348 -31.50573486 164.00256348 -33.26904297 163.69433594 C-35.1158667 163.35063965 -35.1158667 163.35063965 -37 163 C-38.25570801 162.77860352 -39.51141602 162.55720703 -40.80517578 162.32910156 C-44.06785633 161.74453284 -47.32435173 161.13622317 -50.57836914 160.50537109 C-51.91601849 160.24893481 -53.25494248 159.99907112 -54.5949707 159.75537109 C-56.56739867 159.39614226 -58.53575272 159.01476688 -60.50390625 158.6328125 C-61.65705322 158.41512207 -62.8102002 158.19743164 -63.99829102 157.97314453 C-67.34543022 156.88801262 -68.82433658 155.73131256 -71 153 C-71.50755847 150.21857957 -71.19028514 147.8542771 -71 145 C-64.32022918 145.43801776 -58.016011 146.60638332 -51.5 148.0625 C-41.81094664 150.47048326 -41.81094664 150.47048326 -32 150 C-28.60501066 147.47996312 -28.30181177 144.73508239 -27.60546875 140.69140625 C-27.26056396 138.7578125 -27.26056396 138.7578125 -26.90869141 136.78515625 C-26.79148743 136.09824707 -26.67428345 135.41133789 -26.55352783 134.70361328 C-25.92701052 131.03874297 -25.26008002 127.38117608 -24.59765625 123.72265625 C-24.46397644 122.97903839 -24.33029663 122.23542053 -24.19256592 121.4692688 C-22.98186177 114.78032547 -21.58490671 108.1389109 -20.125 101.5 C-14.87232139 77.43515803 -10.08217609 53.26320517 -5.66308594 29.03173828 C-3.89253947 19.33042799 -1.97208983 9.66213842 0 0 Z " fill="#44A5F4" transform="translate(121,253)"/>
<path d="M0 0 C0.12733521 0.66173218 0.25467041 1.32346436 0.38586426 2.00524902 C4.22109829 21.92732358 8.0889489 41.84294489 11.97644043 61.75488281 C12.67145541 65.31525037 13.36546198 68.87581255 14.05871582 72.43652344 C16.03658128 82.59340145 18.0227056 92.74857491 20.02799606 102.90007782 C20.91650708 107.39882144 21.80106616 111.89825742 22.67602539 116.3996582 C23.50459619 120.6612842 24.34416401 124.92059582 25.19219589 129.1783905 C25.50401491 130.7538584 25.81186153 132.3301183 26.11551285 133.90718079 C26.53198731 136.06670168 26.96262976 138.22291934 27.39697266 140.37890625 C27.63533844 141.5913501 27.87370422 142.80379395 28.11929321 144.05297852 C28.99446879 146.98149147 29.54978596 148.23389975 32 150 C39.96561294 151.35304401 48.24410559 149.20206461 56 147.5 C58.20783192 147.028894 60.41614472 146.56003429 62.625 146.09375 C63.58664062 145.88427734 64.54828125 145.67480469 65.5390625 145.45898438 C68 145 68 145 71 145 C71.48892371 152.33385569 71.48892371 152.33385569 69.53369141 154.99780273 C65.96372481 157.81889505 62.48083459 158.34443231 58.0703125 159.17578125 C57.20236053 159.35006149 56.33440857 159.52434174 55.44015503 159.7039032 C53.60755535 160.06822312 51.77343797 160.42497977 49.93798828 160.7746582 C47.13800326 161.31001378 44.34457506 161.87277115 41.55078125 162.43945312 C39.76594834 162.79070948 37.98080087 163.14037199 36.1953125 163.48828125 C35.36387726 163.65588455 34.53244202 163.82348785 33.67581177 163.99617004 C28.66102944 164.9344095 23.69722344 165.83955371 19.21875 162.78515625 C15.46746291 157.29048253 15.0957812 148.7688679 14.07115746 142.28663921 C12.01835998 129.34581525 9.34222005 116.53216429 6.7109375 103.69921875 C6.20167174 101.20349308 5.6926946 98.7077085 5.18399048 96.21186829 C3.99058444 90.36013877 2.79436062 84.50899006 1.59668505 78.65813333 C0.23490714 72.00482907 -1.12329352 65.35079616 -2.48116994 58.69669473 C-4.80109275 47.32831884 -7.12318806 35.96038925 -9.44929504 24.59327698 C-9.63985977 23.66161713 -9.8304245 22.72995728 -10.02676392 21.77006531 C-10.19155558 20.96475215 -10.35634724 20.15943899 -10.52613258 19.3297224 C-10.76069695 18.17650981 -10.76069695 18.17650981 -11 17 C-11.17862768 16.15009397 -11.35725536 15.30018793 -11.54129601 14.42452717 C-12.15960244 11.1564049 -12.30166431 8.31830738 -12 5 C-8.60052372 0.54551384 -5.42379625 -0.14658909 0 0 Z " fill="#FEC702" transform="translate(391,253)"/>
<path d="M0 0 C30.36 0 60.72 0 92 0 C88.92417777 3.84477778 86.55433644 6.38369063 82.8125 9.375 C81.93207031 10.08398438 81.05164063 10.79296875 80.14453125 11.5234375 C79.64608704 11.90188309 79.14764282 12.28032867 78.63409424 12.67024231 C76.92955689 14.00351798 76.92955689 14.00351798 75.30877686 15.74906921 C68.15063255 22.5321504 60.59746381 21.90612575 51.37109375 21.68359375 C49.76972124 21.67051635 48.16832047 21.66056231 46.56690979 21.65357971 C42.37898624 21.62702131 38.19279822 21.55841024 34.0055542 21.48065186 C29.72204052 21.40867457 25.4382427 21.37699516 21.15429688 21.34179688 C12.76874023 21.2670223 4.3845868 21.1477631 -4 21 C-3.71331151 18.99928034 -3.42037415 16.99945581 -3.125 15 C-2.96257812 13.88625 -2.80015625 12.7725 -2.6328125 11.625 C-1.94955888 7.71105333 -0.96362716 3.85450863 0 0 Z " fill="#F8C5A9" transform="translate(132,266)"/>
<path d="M0 0 C12.41940497 2.73647906 25.7501777 21.45955443 34.6401825 30.26855373 C38.00670159 33.60438931 41.3807516 36.9317409 44.77392578 40.24047852 C48.07524783 43.45990914 51.35656616 46.6985061 54.62463379 49.95167732 C55.86813654 51.18294654 57.11850859 52.40731926 58.37585449 53.62444878 C60.13052221 55.32568135 61.85832135 57.05044332 63.58203125 58.78295898 C64.10245499 59.27619156 64.62287872 59.76942413 65.15907288 60.27760315 C67.91063552 63.10231305 69.01376046 65.17001654 69.10424805 69.03700256 C68.6875 72.8125 68.6875 72.8125 67.125 75.25 C63.69495574 77.44874632 61.79674297 78.01796215 57.6875 77.8125 C56.03587341 76.7166748 56.03587341 76.7166748 54.27905273 75.10742188 C53.5774704 74.46498535 52.87588806 73.82254883 52.15304565 73.16064453 C46.8715884 68.13067279 41.65717511 63.036004 36.47265625 57.90625 C35.85238493 57.29255051 35.23211361 56.67885101 34.59304619 56.04655457 C31.32056908 52.80644526 28.0520219 49.56242104 24.78588867 46.31591797 C22.09078352 43.63871371 19.38739016 40.97031382 16.67651367 38.30908203 C13.38608372 35.07880349 10.11058412 31.83407744 6.84524345 28.57844543 C5.60360867 27.34535865 4.35685345 26.11740505 3.10487556 24.89482117 C1.3576935 23.18653003 -0.36962467 21.46027433 -2.09350586 19.72851562 C-2.61033432 19.23168777 -3.12716278 18.73485992 -3.65965271 18.22297668 C-7.18603526 14.62377719 -8.23922869 11.83370351 -8.3125 6.8125 C-5.96220068 2.77292305 -4.57786623 1.12287285 0 0 Z " fill="#F9C6AA" transform="translate(277.3125,377.1875)"/>
<path d="M0 0 C0 0.33 0 0.66 0 1 C-0.57218262 1.06469482 -1.14436523 1.12938965 -1.73388672 1.19604492 C-35.19980802 5.08781956 -63.01554939 16.0392646 -88 39 C-88.74636719 39.66386719 -89.49273437 40.32773438 -90.26171875 41.01171875 C-117.04740343 66.05877886 -126.48647523 101.89331753 -130 137 C-133.3 137 -136.6 137 -140 137 C-140.83800587 106.78523269 -131.75743313 77.93421575 -113 54 C-112.26007813 53.0409375 -111.52015625 52.081875 -110.7578125 51.09375 C-90.12906726 25.11152417 -62.00250516 9.39871626 -30 2 C-28.52466797 1.62875 -28.52466797 1.62875 -27.01953125 1.25 C-18.17275301 -0.72509468 -9.00936536 -0.16805034 0 0 Z " fill="#FFC802" transform="translate(250,86)"/>
<path d="M0 0 C3.57443458 -0.52127171 5.81493557 -0.82676386 8.84646606 1.28819275 C9.46705902 1.85945389 10.08765198 2.43071503 10.72705078 3.01928711 C11.42461487 3.65768524 12.12217896 4.29608337 12.84088135 4.9538269 C16.38427339 8.31186073 19.89735707 11.69477327 23.3671875 15.12890625 C24.12798615 15.88163315 24.88878479 16.63436005 25.67263794 17.40989685 C27.26563521 18.9891651 28.85716064 20.56991927 30.44726562 22.15209961 C32.07206609 23.76529903 33.70134437 25.37400035 35.33496094 26.97827148 C37.70969922 29.31045088 40.07100882 31.65549911 42.4296875 34.00390625 C43.15985077 34.71656143 43.89001404 35.42921661 44.64230347 36.16346741 C51.25823306 42.80808206 51.25823306 42.80808206 52 48 C51.01103237 52.26891634 48.7542708 54.55145916 45.61328125 57.50390625 C44.3303418 58.73850586 44.3303418 58.73850586 43.02148438 59.99804688 C41.20736032 61.71538276 39.38961215 63.42889792 37.56835938 65.13867188 C36.71693359 65.96044922 35.86550781 66.78222656 34.98828125 67.62890625 C34.19977783 68.37213135 33.41127441 69.11535645 32.59887695 69.88110352 C30.76726972 71.83092586 30.76726972 71.83092586 31.12548828 74.04443359 C31.99734773 75.99406906 32.91491895 77.82244483 34.00390625 79.66015625 C34.41092773 80.36108398 34.81794922 81.06201172 35.23730469 81.78417969 C35.67461914 82.53602539 36.11193359 83.28787109 36.5625 84.0625 C45.29640593 99.51768889 56 119.84932377 56 138 C52.37 138 48.74 138 45 138 C44.79246094 136.99324219 44.58492188 135.98648438 44.37109375 134.94921875 C39.84806847 113.94042403 31.77786195 94.46555613 20.0546875 76.453125 C19 74 19 74 19.67797852 72.10180664 C21.22557179 69.64137626 22.97309141 67.90230442 25.09765625 65.91796875 C25.89880859 65.15033203 26.69996094 64.38269531 27.52539062 63.59179688 C29.21302355 61.99250809 30.90834137 60.40128883 32.61132812 58.81835938 C36.06672007 55.48547931 38.62864213 52.88718656 40.49609375 48.42578125 C39.95618929 44.6974646 39.41417567 43.98468197 36.9765625 41.29956055 C36.33883408 40.59691574 35.70110565 39.89427094 35.04405212 39.17033386 C31.72002718 35.64095033 28.31952161 32.19676854 24.87890625 28.78125 C24.13414536 28.03790405 23.38938446 27.29455811 22.62205505 26.52868652 C20.27123255 24.18340699 17.91693569 21.84165164 15.5625 19.5 C13.95614801 17.89867039 12.35002603 16.29711002 10.74414062 14.6953125 C6.83208015 10.79420527 2.91717048 6.8959758 -1 3 C-0.67 2.01 -0.34 1.02 0 0 Z " fill="#FFC802" transform="translate(378,49)"/>
<path d="M0 0 C8.70797416 1.77111339 15.76115796 11.6771148 21.83984375 17.76953125 C22.78993935 18.71895157 23.7401832 19.66822354 24.69056702 20.61735535 C26.66455877 22.58988497 28.63676086 24.56418139 30.60766602 26.53979492 C33.135104 29.07297661 35.6670695 31.60157828 38.20035458 34.12891102 C40.15549755 36.08044808 42.10826218 38.03435093 44.06030464 39.98898888 C45.44664415 41.37631865 46.83499591 42.76163665 48.22337341 44.14692688 C49.47586632 45.40414803 49.47586632 45.40414803 50.75366211 46.68676758 C51.49120224 47.4251033 52.22874237 48.16343903 52.9886322 48.92414856 C55.16797473 51.26638831 55.6437937 52.35664331 56 55.5625 C55.60395896 59.60211856 54.69908942 61.04729155 51.6875 63.75 C48.3125 64.8125 48.3125 64.8125 44.6875 64.75 C40.59529372 62.34410449 37.25787916 59.57233351 33.90722656 56.22851562 C33.01320129 55.34079468 32.11917603 54.45307373 31.19805908 53.53845215 C30.24115878 52.57797269 29.28452025 51.61723236 28.328125 50.65625 C27.33287214 49.66234629 26.33732272 48.66873947 25.3414917 47.67541504 C23.26394724 45.60080735 21.19003354 43.52265538 19.11865234 41.44189453 C16.46687069 38.77868938 13.80617001 36.12460464 11.14270401 33.47309113 C9.08874077 31.4263602 7.03957124 29.37488322 4.99181366 27.32194519 C4.0124961 26.34129648 3.03169898 25.36212296 2.04938507 24.38447571 C0.67814323 23.01832472 -0.68599192 21.64505179 -2.04980469 20.27148438 C-2.8266864 19.49301147 -3.60356812 18.71453857 -4.4039917 17.91247559 C-7.03339286 14.93317714 -8.16570855 12.73559972 -8.75 8.8125 C-8.3125 5.75 -8.3125 5.75 -6.25 2.875 C-3.3125 0.75 -3.3125 0.75 0 0 Z " fill="#F9C6AA" transform="translate(243.3125,404.25)"/>
<path d="M0 0 C4.0574932 2.8063604 6.29134279 5.97797212 8.19921875 10.57421875 C9.20782645 16.52500417 8.91437977 21.19819968 6.07421875 26.57421875 C1.7168045 31.778908 -1.87066905 34.0163161 -8.546875 35.140625 C-14.11114354 35.3969286 -18.47069779 33.3737297 -23.05078125 30.38671875 C-27.51280902 25.92469098 -28.80593372 22.0314446 -29.23046875 15.8203125 C-29.12546396 10.90758851 -27.90231262 7.1753619 -24.58984375 3.50390625 C-17.121362 -3.24707944 -8.98048604 -5.02836645 0 0 Z " fill="#FED6BD" transform="translate(266.17578125,154.73828125)"/>
<path d="M0 0 C5.38603181 4.4067533 7.67120938 9.04088439 8.4375 15.9375 C8.16492101 22.05275048 5.42034955 26.44437906 1.375 30.875 C-3.64134909 34.03344202 -8.52077842 35.53399445 -14.46875 34.62109375 C-20.50849314 32.859502 -23.99646122 29.86637665 -27.60546875 24.703125 C-30.03785841 19.98824085 -29.61735528 15.17206536 -29 10 C-27.38383499 5.11674873 -24.29737759 1.76259988 -20 -1 C-12.80841609 -4.12677561 -6.87953938 -3.69456744 0 0 Z " fill="#FED5BD" transform="translate(347,155)"/>
<path d="M0 0 C4.22227327 2.96258954 7.1874046 5.75114286 8.68359375 10.80078125 C9.56389028 17.14436138 9.50680992 22.32441433 6.05859375 27.86328125 C2.44861507 32.53849954 -0.98130888 34.23862818 -6.69140625 35.61328125 C-12.78154008 35.92828817 -17.28343692 34.92845078 -22.12890625 31.11328125 C-26.39485366 27.09082399 -28.40851649 22.66225718 -28.69140625 16.80078125 C-28.40539868 10.87470431 -26.37753712 6.48454131 -22.00390625 2.48828125 C-15.41181304 -2.64805804 -7.618417 -3.94410458 0 0 Z " fill="#FED6BC" transform="translate(185.31640625,154.19921875)"/>
<path d="M0 0 C8.28371193 1.68482277 14.82612129 10.73328713 20.625 16.5625 C21.39134766 17.32498047 22.15769531 18.08746094 22.94726562 18.87304688 C23.67494141 19.60201172 24.40261719 20.33097656 25.15234375 21.08203125 C25.808396 21.73921143 26.46444824 22.3963916 27.14038086 23.07348633 C29.22229996 25.32952837 29.65729637 26.47816732 30 29.5625 C29.61585642 33.4807645 28.39493683 34.96293267 25.6875 37.75 C22.66971063 39.25889469 21.06427363 39.25026276 17.6875 38.75 C11.47244743 34.27801569 6.13539632 28.35106753 0.75 22.9375 C-0.01634766 22.17501953 -0.78269531 21.41253906 -1.57226562 20.62695312 C-2.29994141 19.89798828 -3.02761719 19.16902344 -3.77734375 18.41796875 C-4.433396 17.76078857 -5.08944824 17.1036084 -5.76538086 16.42651367 C-8.02345997 13.97957833 -8.3037463 12.82732432 -8.6875 9.4375 C-8.3125 5.75 -8.3125 5.75 -6.25 2.8125 C-3.3125 0.75 -3.3125 0.75 0 0 Z " fill="#F9C6AA" transform="translate(209.3125,431.25)"/>
<path d="M0 0 C1.93627769 -0.10807131 3.87427756 -0.1856225 5.8125 -0.25 C7.43091797 -0.31960938 7.43091797 -0.31960938 9.08203125 -0.390625 C12 0 12 0 13.65039062 1.57617188 C15.47919111 4.86060227 15.43488794 7.42253138 15.51171875 11.171875 C15.52966995 11.8542926 15.54762115 12.53671021 15.56611633 13.23980713 C15.62010383 15.4098094 15.65407583 17.57959325 15.6875 19.75 C15.72068352 21.22529074 15.75517415 22.70055269 15.79101562 24.17578125 C15.87582158 27.78364427 15.94268837 31.39158362 16 35 C17.1859375 35.29132812 18.371875 35.58265625 19.59375 35.8828125 C36.47148798 40.11672265 51.57795606 45.98122105 67 54 C68.99819251 55.00360685 70.99754151 56.00493217 73 57 C72.1875 58.9375 72.1875 58.9375 71 61 C68 62 68 62 64.8046875 60.41015625 C63.49061139 59.63464427 62.1810122 58.85151647 60.875 58.0625 C43.15521511 47.81305606 24.95124309 40.84013807 5 36 C4.98598145 34.63065308 4.98598145 34.63065308 4.97167969 33.23364258 C4.92754819 29.83183952 4.865886 26.43127833 4.79248047 23.0300293 C4.76433389 21.5607455 4.74308791 20.09131205 4.72900391 18.62182617 C4.7074847 16.50361886 4.66079666 14.38719847 4.609375 12.26953125 C4.58842773 10.99698486 4.56748047 9.72443848 4.54589844 8.41333008 C3.92151889 4.50928249 2.70372015 2.81912284 0 0 Z " fill="#FFC803" transform="translate(277,9)"/>
<path d="M0 0 C0.33951619 1.56116819 0.67132544 3.12401338 1 4.6875 C1.185625 5.55761719 1.37125 6.42773438 1.5625 7.32421875 C1.706875 8.20722656 1.85125 9.09023438 2 10 C2.20302734 11.11568359 2.20302734 11.11568359 2.41015625 12.25390625 C1.7650012 16.57337292 -1.05441078 18.67207221 -4.125 21.61328125 C-4.74648926 22.22769577 -5.36797852 22.84211029 -6.00830078 23.47514343 C-7.99410247 25.43297849 -9.99658291 27.37271013 -12 29.3125 C-13.35009468 30.63751502 -14.69906753 31.96367413 -16.046875 33.29101562 C-19.35171715 36.54075805 -22.67162449 39.77437165 -26 43 C-27.12894876 42.06725891 -28.25300876 41.12859878 -29.375 40.1875 C-30.00148438 39.66542969 -30.62796875 39.14335937 -31.2734375 38.60546875 C-33 37 -33 37 -35 34 C-30.17966637 29.15440503 -25.35549024 24.31266101 -20.52856445 19.47363281 C-18.88541368 17.8254392 -17.24315961 16.17635114 -15.60180664 14.52636719 C-13.24858479 12.16107753 -10.89220448 9.79897584 -8.53515625 7.4375 C-7.79660904 6.6937915 -7.05806183 5.95008301 -6.2971344 5.18383789 C-5.61650436 4.50313232 -4.93587433 3.82242676 -4.23461914 3.12109375 C-3.6328334 2.5170874 -3.03104767 1.91308105 -2.411026 1.29077148 C-1 0 -1 0 0 0 Z " fill="#EAAC92" transform="translate(404,383)"/>
<path d="M0 0 C1.91595968 -0.08133791 3.83291932 -0.13934367 5.75 -0.1875 C7.35101563 -0.23970703 7.35101563 -0.23970703 8.984375 -0.29296875 C12.34736544 0.03374664 13.63641253 0.63089013 16 3 C17.17942085 6.53826255 17.11289189 9.34148726 17.09765625 13.07421875 C17.0962413 13.7580513 17.09482635 14.44188385 17.09336853 15.1464386 C17.08777876 17.32683722 17.07522822 19.50713251 17.0625 21.6875 C17.05748367 23.16731622 17.052921 24.64713406 17.04882812 26.12695312 C17.03781271 29.75133557 17.02055512 33.3756577 17 37 C13.37 37 9.74 37 6 37 C5.99589111 36.0212793 5.99178223 35.04255859 5.98754883 34.03417969 C5.96574292 30.39578912 5.91144048 26.75847783 5.84741211 23.12060547 C5.82424439 21.54746867 5.80983921 19.97417704 5.80444336 18.40087891 C5.79514374 16.13606428 5.75414022 13.87368033 5.70703125 11.609375 C5.7109639 10.90818542 5.71489655 10.20699585 5.71894836 9.48455811 C5.60428695 5.62974769 5.26978202 4.26250741 2.45581055 1.52441406 C1.64539307 1.02135742 0.83497559 0.51830078 0 0 Z " fill="#FFC803" transform="translate(453,186)"/>
<path d="M0 0 C0.495 4.455 0.495 4.455 1 9 C-5.34424519 11.10591855 -11.31583442 12.67394314 -18 13 C-19.88912109 13.09667969 -19.88912109 13.09667969 -21.81640625 13.1953125 C-36.3974071 13.69706057 -48.70474428 10.04104729 -62 4 C-58.16330744 2.72110248 -55.32873708 3.60564808 -51.5 4.4375 C-35.8394416 7.56996226 -21.2966939 5.1699415 -6.08203125 0.8046875 C-3 0 -3 0 0 0 Z " fill="#EBAC93" transform="translate(381,270)"/>
<path d="M0 0 C10.18823536 0.03612849 18.580331 2.27992879 26.390625 9.08203125 C32.90051825 15.9656406 36.66607117 23.48302844 37 33 C35 35 35 35 33.0546875 35.1953125 C31.03645833 35.13020833 29.01822917 35.06510417 27 35 C27.05800781 34.39414063 27.11601562 33.78828125 27.17578125 33.1640625 C27.64461917 24.45707248 24.56147698 16.93535437 18.71484375 10.37890625 C13.41257993 6.11535471 6.71164327 3.04869426 0 2 C0 1.34 0 0.68 0 0 Z " fill="#59CB5A" transform="translate(173,190)"/>
<path d="M0 0 C10.64145887 0.40461821 19.33732919 2.5623897 27.24609375 10.0078125 C33.22766198 16.80202141 36.53284696 24.94160174 36 34 C35 35 35 35 33.15234375 35.09765625 C31.1015625 35.06510417 29.05078125 35.03255208 27 35 C27.12375 33.7625 27.2475 32.525 27.375 31.25 C27.33932418 23.69861871 23.77439699 17.13627486 18.84375 11.5625 C13.17763045 6.28447083 7.7368579 3.1722512 0 2 C0 1.34 0 0.68 0 0 Z " fill="#FB493A" transform="translate(334,190)"/>
<path d="M0 0 C8.05676827 -0.74946682 16.22646093 1.40090476 22.88671875 5.98828125 C30.02030864 12.16219537 35.0905455 18.62631427 37 28 C37.1875 31.375 37.1875 31.375 37 34 C36 35 36 35 33.93359375 35.09765625 C33.10988281 35.08605469 32.28617187 35.07445312 31.4375 35.0625 C30.61121094 35.05347656 29.78492188 35.04445312 28.93359375 35.03515625 C28.29550781 35.02355469 27.65742188 35.01195312 27 35 C27.33 34.34 27.66 33.68 28 33 C28.09666312 23.68167555 24.23737044 16.57827244 18.05859375 9.828125 C13.01423156 5.34850165 6.74119201 2.53219937 0 2 C0 1.34 0 0.68 0 0 Z " fill="#45A7F5" transform="translate(253,190)"/>
<path d="M0 0 C4.26340736 1.52264549 5.92612655 4.06679174 8 8 C9.76701663 14.35170842 9.15090979 20.19970932 6 26 C2.20171285 30.92409525 -2.35749962 33.03165772 -8.4375 33.94921875 C-13.96771795 34.05881148 -18.38670295 32.3772048 -22.5625 28.8125 C-23.036875 28.214375 -23.51125 27.61625 -24 27 C-23.19369141 27.23976562 -23.19369141 27.23976562 -22.37109375 27.484375 C-19.56063391 28.09554584 -16.93833206 28.20648173 -14.0625 28.25 C-12.53302734 28.28867188 -12.53302734 28.28867188 -10.97265625 28.328125 C-7.59882446 27.95571781 -5.80025745 26.85060492 -3 25 C-2.34 25 -1.68 25 -1 25 C2.11306251 19.2185982 3.87659309 13.61891307 3 7 C2.18647368 4.51239639 1.1759994 2.3519988 0 0 Z " fill="#F9C8AC" transform="translate(266,156)"/>
<path d="M0 0 C3.65277837 1.17410733 5.47411665 3.38530397 7.2265625 6.75 C9.14659346 12.33554462 9.18730218 18.22285141 6.859375 23.66796875 C3.15003216 29.65172444 -0.5103924 32.15990928 -7.375 33.8125 C-13.39151497 34.12369905 -17.40955942 33.3916355 -22 29.375 C-22.66 28.59125 -23.32 27.8075 -24 27 C-23.19175781 27.23783203 -23.19175781 27.23783203 -22.3671875 27.48046875 C-16.35799052 28.79931891 -10.10217915 28.97601175 -4.5 26.375 C0.59809611 21.5318087 2.63268337 17.49845598 3.1171875 10.546875 C2.93393615 6.56421236 1.66757915 3.60197095 0 0 Z " fill="#F9C8AC" transform="translate(186,156)"/>
<path d="M0 0 C3.30901116 1.0269345 4.0219638 2.03922107 5.75 5.125 C7.8691895 10.78007475 7.82920519 15.72458301 5.375 21.1875 C2.7679787 25.79504807 -0.21716236 28.96651004 -5.29296875 30.8515625 C-11.60341151 32.47564544 -16.1127907 31.64497809 -22 29 C-21.67 28.34 -21.34 27.68 -21 27 C-18.7421875 26.7265625 -18.7421875 26.7265625 -15.875 26.625 C-10.3984684 26.19881077 -7.35642516 25.37845217 -3 22 C1.53818288 16.29818048 1.66599522 11.12942423 1 4 C0.70114388 2.65851802 0.38042667 1.32066818 0 0 Z " fill="#F9C7AC" transform="translate(348,158)"/>
<path d="M0 0 C3.69116757 2.63741841 6.81234551 5.78336683 10 9 C10.87140625 9.85851563 11.7428125 10.71703125 12.640625 11.6015625 C14.77754966 13.71832749 16.89616151 15.85042589 19 18 C16.40609585 20.13070698 14.39833446 21.73690818 11 22 C8.92529297 20.47705078 8.92529297 20.47705078 6.7421875 18.1953125 C5.95199219 17.38449219 5.16179687 16.57367188 4.34765625 15.73828125 C3.12369141 14.44470703 3.12369141 14.44470703 1.875 13.125 C0.24931298 11.43825431 -1.37820075 9.7532667 -3.0078125 8.0703125 C-3.72598145 7.31508301 -4.44415039 6.55985352 -5.18408203 5.78173828 C-6.88677137 3.92861394 -6.88677137 3.92861394 -9 3 C-9 2.34 -9 1.68 -9 1 C-5.84951137 -0.57524431 -3.35507052 -0.94709555 0 0 Z " fill="#FFCC02" transform="translate(134,49)"/>
<path d="M0 0 C0.87462891 0.00451172 1.74925781 0.00902344 2.65039062 0.01367188 C4.78779047 0.02535166 6.92515463 0.04328311 9.0625 0.0625 C9.0625 0.3925 9.0625 0.7225 9.0625 1.0625 C5.4809073 1.59580505 1.89704729 2.11196167 -1.6875 2.625 C-3.21117187 2.85219727 -3.21117187 2.85219727 -4.765625 3.08398438 C-5.7453125 3.22255859 -6.725 3.36113281 -7.734375 3.50390625 C-9.08547363 3.70028687 -9.08547363 3.70028687 -10.46386719 3.90063477 C-12.89718635 4.05986203 -14.62964003 3.79960222 -16.9375 3.0625 C-16.9375 2.4025 -16.9375 1.7425 -16.9375 1.0625 C-11.24910882 0.0822752 -5.76455667 -0.05698801 0 0 Z " fill="#FFCD0F" transform="translate(240.9375,85.9375)"/>
<path d="M0 0 C3.63 0.66 7.26 1.32 11 2 C10.01 2.66 9.02 3.32 8 4 C4.56816682 3.15955106 2.51471866 2.51471866 0 0 Z " fill="#EEB399" transform="translate(319,273)"/>
</svg>
